# xmcd
#
# Track frame offsets:
#	150
#	13155
#	25722
#	34140
#	46887
#	58085
#	68692
#	79395
#	88602
#	101162
#	111857
#	123157
#	131152
#	141137
#	153732
#	163175
#	173342
#	186455
#	196397
#	209192
#
# Disc length: 2965 seconds
# Revision: 1
# Processed by: cddbd v1.5.2PL0 Copyright (c) Steve Scherf et al.
# Submitted via: dBpowerAMP V12.0
#
DISCID=240b9314
DTITLE=Jim Reeves - The Ultimate Collection
DYEAR=1996
DGENRE=Country
TTITLE0=Distant Drums
TTITLE1=I Can't Stop Loving You
TTITLE2=From a Jack to a King
TTITLE3=Roses Are Red (My Love)
TTITLE4=Moonlight and Roses (Bring Mem'ries of You)
TTITLE5=You're the Only Good Thing
TTITLE6=Am I That Easy to Forget
TTITLE7=You're Free to Go
TTITLE8=Not Until the Next Time
TTITLE9=Don't Let Me Cross Over
TTITLE10=Anna Marie
TTITLE11=Trying to Forget
TTITLE12=I Won't Come in While He's There
TTITLE13=This World Is Not My Home
TTITLE14=Billy Bayou
TTITLE15=Is It Really Over?
TTITLE16=The White Cliffs of Dover
TTITLE17=Blue Boy
TTITLE18=Golden Memories and Silver Tears
TTITLE19=Danny Boy
EXTD=
EXTT0=
EXTT1=
EXTT2=
EXTT3=
EXTT4=
EXTT5=
EXTT6=
EXTT7=
EXTT8=
EXTT9=
EXTT10=
EXTT11=
EXTT12=
EXTT13=
EXTT14=
EXTT15=
EXTT16=
EXTT17=
EXTT18=
EXTT19=
PLAYORDER=
